<?xml version="1.0" encoding="UTF-8"?>
<svg version="1.1" xmlns="http://www.w3.org/2000/svg" width="400" height="400">
<path d="M0 0 C1.893066 -0.00935994 1.893066 -0.00935994 3.82437575 -0.01890898 C7.29765891 -0.03548647 10.77049805 -0.02740945 14.24378204 -0.0149641 C18.00122975 -0.00586778 21.75860413 -0.01990604 25.51603699 -0.03088379 C32.86565461 -0.04862602 40.21510838 -0.04484797 47.5647323 -0.03323323 C53.54167948 -0.02418083 59.51858091 -0.0229827 65.49553299 -0.02732849 C66.34787583 -0.02794142 67.20021866 -0.02855436 68.07839007 -0.02918586 C69.8102117 -0.03046483 71.54203332 -0.03176169 73.27385493 -0.03307623 C89.49584811 -0.0444698 105.71775073 -0.03138826 121.93972905 -0.00987476 C135.83931013 0.00798867 149.73875753 0.00489597 163.63833618 -0.0135498 C179.80120785 -0.03498927 195.9640002 -0.04336451 212.1268841 -0.03110075 C213.85276388 -0.02982664 215.57864367 -0.02856915 217.30452347 -0.02732849 C218.15355942 -0.02671139 219.00259537 -0.02609429 219.87735968 -0.02545848 C225.84160292 -0.02201432 231.80579557 -0.02781386 237.77003098 -0.0372467 C245.04656357 -0.04850261 252.32292373 -0.04535184 259.59943675 -0.02412373 C263.30745804 -0.01366033 267.01519255 -0.00941005 270.72321129 -0.02272034 C274.75362729 -0.03696827 278.78332849 -0.01987845 282.8137207 0 C283.97065347 -0.00892289 285.12758624 -0.01784577 286.31957757 -0.02703905 C297.68683035 0.08119922 309.36840332 2.67097272 318.03384399 10.50793457 C318.03384399 11.16793457 318.03384399 11.82793457 318.03384399 12.50793457 C318.59071899 12.71418457 319.14759399 12.92043457 319.72134399 13.13293457 C326.86184221 17.37863621 331.26592485 26.6528849 333.59226006 34.35731429 C335.20813656 40.94268121 335.31677529 47.29383566 335.29454041 54.05049133 C335.29836595 55.29111428 335.3021915 56.53173724 335.30613297 57.80995482 C335.31463349 61.2326059 335.31424186 64.65504087 335.30995238 68.07768548 C335.30747754 71.77718924 335.31650874 75.47666816 335.32398987 79.17616272 C335.3367182 86.4160532 335.33853286 93.65590656 335.33618961 100.89580635 C335.33440408 106.78317428 335.33616112 112.67053098 335.34041405 118.55789757 C335.34100924 119.3969233 335.34160443 120.23594903 335.34221765 121.10039979 C335.34342945 122.80508521 335.34464358 124.50977063 335.34586003 126.21445604 C335.35672853 142.18982791 335.35457643 158.16517866 335.34847518 174.14055171 C335.34330751 188.73978267 335.35455875 203.33894687 335.3735734 217.93816463 C335.3929685 232.94507849 335.40120481 247.9519608 335.39745015 262.95888728 C335.39554053 271.3775141 335.39800223 279.79608413 335.41216469 288.2147007 C335.42410084 295.38221506 335.42545844 302.54963767 335.41337452 309.71715335 C335.40750127 313.37031786 335.40634302 317.02331472 335.41837692 320.6764679 C335.43130002 324.6458698 335.42073423 328.61502003 335.4080658 332.58442688 C335.41544008 333.72618199 335.42281437 334.86793709 335.43041211 336.04429084 C335.33347184 350.53573731 331.25536754 362.92363582 321.47134399 373.82043457 C310.20486192 384.31974374 296.29210624 386.81733769 281.49128723 386.76863098 C280.25066428 386.77245653 279.01004133 386.77628208 277.73182374 386.78022355 C274.30917266 386.78872407 270.88673769 386.78833244 267.46409309 386.78404295 C263.76458933 386.78156812 260.06511041 386.79059931 256.36561584 386.79808044 C249.12572536 386.81080878 241.885872 386.81262344 234.64597221 386.81028018 C228.75860428 386.80849466 222.87124759 386.81025169 216.983881 386.81450462 C215.7253424 386.81539741 215.7253424 386.81539741 214.44137878 386.81630823 C212.73669336 386.81752002 211.03200794 386.81873416 209.32732252 386.8199506 C193.35195065 386.83081911 177.37659991 386.82866701 161.40122686 386.82256576 C146.8019959 386.81739808 132.20283169 386.82864933 117.60361394 386.84766398 C102.59670007 386.86705908 87.58981776 386.87529539 72.58289129 386.87154073 C64.16426446 386.86963111 55.74569444 386.87209281 47.32707787 386.88625526 C40.1595635 386.89819142 32.99214089 386.89954902 25.82462522 386.8874651 C22.17146071 386.88159185 18.51846384 386.8804336 14.86531067 386.8924675 C10.89590876 386.9053906 6.92675854 386.8948248 2.95735168 386.88215637 C1.81559658 386.88953066 0.67384147 386.89690494 -0.50251228 386.90450269 C-14.2847969 386.81230634 -27.10556653 383.38592967 -37.27865601 373.69543457 C-47.91885557 362.16311194 -51.59440971 349.8858039 -51.47409058 334.29454041 C-51.48033054 333.03008199 -51.4865705 331.76562358 -51.49299955 330.46284825 C-51.50953441 326.99215246 -51.50152 323.52190258 -51.48905468 320.05120623 C-51.47994079 316.29313143 -51.49400501 312.53512911 -51.50497437 308.77706909 C-51.52269655 301.4307348 -51.51894801 294.08456462 -51.5073238 286.73822408 C-51.49826551 280.76465329 -51.4970758 274.79112827 -51.50141907 268.81755257 C-51.502032 267.96519199 -51.50264493 267.11283141 -51.50327644 266.23464172 C-51.50455542 264.50273742 -51.50585228 262.77083314 -51.5071668 261.03892887 C-51.51855396 244.82554118 -51.50548787 228.61224418 -51.48396534 212.39887137 C-51.46609282 198.50524876 -51.46920334 184.61175985 -51.48764038 170.71813965 C-51.50907455 154.55855917 -51.51745888 138.39905801 -51.50519133 122.2394653 C-51.50391721 120.51447715 -51.50265973 118.78948898 -51.50141907 117.06450081 C-51.50080197 116.21591412 -51.50018486 115.36732743 -51.49954906 114.493026 C-51.49610403 108.53029353 -51.50190611 102.56761164 -51.51133728 96.60488701 C-51.52258685 89.33313195 -51.51945518 82.06154948 -51.4982143 74.78981405 C-51.48774396 71.08392791 -51.48351284 67.37832893 -51.49681091 63.6724453 C-51.5110396 59.64616486 -51.49398425 55.62060154 -51.47409058 51.59434509 C-51.48301346 50.43586372 -51.49193635 49.27738235 -51.50112963 48.08379549 C-51.4013809 37.63895464 -48.82811906 28.3627712 -42.84115601 19.75793457 C-42.15795288 18.75246582 -41.47474976 17.74699707 -40.77084351 16.71105957 C-39.87752319 15.6205127 -39.87752319 15.6205127 -38.96615601 14.50793457 C-38.30615601 14.50793457 -37.64615601 14.50793457 -36.96615601 14.50793457 C-36.96615601 13.84793457 -36.96615601 13.18793457 -36.96615601 12.50793457 C-34.50912476 10.70324707 -34.50912476 10.70324707 -31.15365601 8.63293457 C-30.07471069 7.9548877 -28.99576538 7.27684082 -27.88412476 6.57824707 C-18.74484949 1.49122708 -10.38680709 -0.0798009 0 0 Z " fill="#FAF5EE" transform="translate(56.966156005859375,3.4920654296875)"/>
<path d="M0 0 C7.87640009 -0.11658832 15.75259263 -0.20506293 23.62964249 -0.25906086 C27.28856446 -0.28499639 30.94688995 -0.32009306 34.60546875 -0.37719727 C38.14576707 -0.43210042 41.685497 -0.46154068 45.22618866 -0.47438622 C47.21350378 -0.48792614 49.20059475 -0.52686351 51.18756104 -0.56648254 C62.47533596 -0.5699193 71.99385794 2.18185732 80.265625 10.12890625 C88.89587153 19.439465 94.14696014 31.0127218 99.5625 42.375 C100.0471875 43.39029785 100.531875 44.4055957 101.03125 45.45166016 C103.80791567 51.32385656 106.34715032 57.19618655 108.5625 63.3046875 C110.69360187 68.78300915 113.1116348 74.12979466 115.5 79.5 C118.77121744 86.86709347 121.95373019 94.20958306 124.76171875 101.765625 C126.41759321 106.09074819 128.20275185 110.35699992 130 114.625 C130.51566528 115.84968994 130.51566528 115.84968994 131.04174805 117.09912109 C133.30741666 122.44547041 135.67010773 127.73522396 138.1875 132.96875 C139 135 139 135 139 138 C139.66 138 140.32 138 141 138 C141.350625 136.824375 141.70125 135.64875 142.0625 134.4375 C143.7456482 129.35599543 145.98343222 124.56779021 148.31079102 119.75756836 C150.38020833 115.45144377 152.20532083 111.08368725 153.95776367 106.6394043 C155.74319145 102.11790988 157.59541239 97.62363883 159.4375 93.125 C159.80681641 92.22136719 160.17613281 91.31773437 160.55664062 90.38671875 C162.48974508 85.66284132 164.43873446 80.94630113 166.41015625 76.23828125 C169.07707951 69.84674606 171.66111176 63.42301255 174.22949219 56.99145508 C174.99806139 55.06735329 175.76847234 53.14399629 176.5390625 51.22070312 C179.36888815 44.14718364 182.14694445 37.05672436 184.8425293 29.93066406 C189.9775892 16.928922 196.094088 7.97796283 209 2 C209.74646286 1.65389679 210.49292572 1.30779358 211.26200867 0.95120239 C214.34291041 -0.11913011 216.726863 -0.24099845 219.98364258 -0.22705078 C221.75491264 -0.22682419 221.75491264 -0.22682419 223.56196594 -0.22659302 C225.45908577 -0.21110916 225.45908577 -0.21110916 227.39453125 -0.1953125 C229.34826912 -0.19106766 229.34826912 -0.19106766 231.34147644 -0.18673706 C234.79222384 -0.17912697 238.24280098 -0.15950135 241.69348145 -0.1373291 C245.219459 -0.11681388 248.74546425 -0.10772324 252.27148438 -0.09765625 C259.18105921 -0.07625272 266.09052141 -0.04214874 273 0 C273 3.3 273 6.6 273 10 C272.18015625 10.36351563 271.3603125 10.72703125 270.515625 11.1015625 C262.1440756 14.84920948 262.1440756 14.84920948 257 22 C256.08329687 25.00310664 255.8689213 27.70926452 255.85473633 30.84326172 C255.84845215 31.80834152 255.84216797 32.77342133 255.83569336 33.76774597 C255.83448486 34.81118668 255.83327637 35.85462738 255.83203125 36.9296875 C255.8278418 38.01925247 255.82365234 39.10881744 255.81933594 40.23139954 C255.80951924 43.77930269 255.80955345 47.32708544 255.8125 50.875 C255.81277191 52.08282135 255.81304382 53.2906427 255.81332397 54.5350647 C255.83106176 71.59668249 256.13867622 88.49808854 257.68359375 105.49707031 C258.02295009 109.25408012 258.32557319 113.01304341 258.625 116.7734375 C259.33326223 125.52379738 260.15128078 134.26226567 261 143 C261.08743469 143.9085675 261.17486938 144.81713501 261.26495361 145.75323486 C261.84140572 151.72253979 262.44156972 157.68888717 263.06674194 163.65328979 C263.2690235 165.6033513 263.4660004 167.55397187 263.65713501 169.50515747 C265.68997858 190.93638004 265.68997858 190.93638004 275 210 C279.58078075 213.62201269 284.65949768 215.73433235 290 218 C290 221.3 290 224.6 290 228 C255.35 228 220.7 228 185 228 C185 224.7 185 221.4 185 218 C185.79664063 217.81824219 186.59328125 217.63648438 187.4140625 217.44921875 C196.90019354 215.82609199 196.90019354 215.82609199 204.10513306 210.29144287 C207.33296825 203.62152417 207.55625573 197.71761318 207.3984375 190.390625 C207.37769669 188.56618866 207.37769669 188.56618866 207.35653687 186.70489502 C207.09994715 172.34113328 205.88215633 158.05411485 204.625 143.75 C204.39866039 141.09394578 204.17600801 138.43759842 203.953125 135.78125 C203.41359955 129.37825965 202.8635854 122.97623124 202.30941772 116.57449341 C200.94967741 100.86633444 199.6865928 85.17231693 198.82006836 69.42895508 C198.70558437 67.370359 198.58555193 65.31214523 198.46484375 63.25390625 C198.36610962 61.47995483 198.36610962 61.47995483 198.26538086 59.67016602 C198.29292147 57.08168576 198.29292147 57.08168576 197 56 C188.34542339 76.93117044 179.74410423 97.87916734 171.44140625 118.953125 C168.25505143 127.00476381 164.89446628 134.97156334 161.5 142.9375 C158.10692909 150.90052802 154.82600494 158.87272951 151.85327148 167.00195312 C150.42372404 170.90634233 148.85900156 174.69786061 147.12890625 178.4765625 C142.88787787 187.95650828 139.05764873 197.54043909 135.89453125 207.43359375 C134.84640029 210.44067691 133.50775847 213.1699305 132.015625 215.9765625 C130.06395643 219.8648868 128.57568508 223.94823836 127 228 C123.37 228 119.74 228 116 228 C114.24713147 224.04293096 112.49823899 220.0841163 110.75 216.125 C110.25886719 215.01640625 109.76773438 213.9078125 109.26171875 212.765625 C107.12210515 207.91583417 104.99955089 203.06983532 103.05859375 198.13671875 C100.33723827 191.2379782 97.30085257 184.47345735 94.3125 177.6875 C93.05612501 174.82863636 91.80115158 171.96915985 90.546875 169.109375 C90.23931778 168.4082811 89.93176056 167.70718719 89.61488342 166.98484802 C87.05936007 161.1518258 84.55248189 155.29878996 82.0625 149.4375 C79.56847798 143.56851126 76.98798796 137.75921605 74.25 132 C72.23759623 127.76639506 70.38268254 123.52158083 68.75 119.125 C66.33680097 112.65540392 63.55422548 106.37129171 60.75 100.0625 C56.6979124 90.94359345 52.79279056 81.78262231 49.08105469 72.51977539 C47.2735256 68.02758536 45.38360797 63.59156899 43.37060547 59.18701172 C42.9252243 58.2112619 42.47984314 57.23551208 42.02096558 56.23019409 C41.68404694 55.49423004 41.3471283 54.75826599 41 54 C40.94180084 54.96290451 40.88360168 55.92580902 40.82363892 56.91789246 C40.26632465 66.1359606 39.70769063 75.35394802 39.1478672 84.57186413 C38.86031825 89.30723028 38.57318405 94.04262071 38.28710938 98.77807617 C37.95574414 104.2622874 37.62276805 109.74639947 37.2890625 115.23046875 C37.23445736 116.13011478 37.17985222 117.02976082 37.12359238 117.95666885 C36.43247356 129.32142654 35.67926622 140.6789909 34.859375 152.03515625 C34.16774391 161.76518268 33.62704129 171.46319972 33.62939453 181.21972656 C33.62483356 183.32689364 33.58760051 185.43223551 33.55078125 187.5390625 C33.47308563 197.07066749 34.96206488 203.39969824 40.1875 211.3125 C45.5298596 216.4174214 51.74422695 218.3824874 59 219 C59 221.97 59 224.94 59 228 C34.58 228 10.16 228 -15 228 C-15 224.7 -15 221.4 -15 218 C-14.11957031 217.75765625 -13.23914062 217.5153125 -12.33203125 217.265625 C-11.17058594 216.93046875 -10.00914063 216.5953125 -8.8125 216.25 C-7.66394531 215.92515625 -6.51539063 215.6003125 -5.33203125 215.265625 C-0.5619038 213.45375947 2.91698191 211.04963289 5.125 206.375 C8.57753918 198.62536233 10.41676708 190.84695456 11.24609375 182.4296875 C11.34207352 181.53046066 11.43805328 180.63123383 11.53694153 179.70475769 C11.8474706 176.7624763 12.14310931 173.81893661 12.4375 170.875 C12.65112623 168.80393021 12.8649978 166.73288571 13.07910156 164.66186523 C16.42994274 131.85197712 19.50776515 98.91093213 20.5625 65.9375 C20.62727539 64.08801758 20.62727539 64.08801758 20.69335938 62.20117188 C22.85482319 38.65961045 22.85482319 38.65961045 14.77734375 17.68359375 C10.51790981 13.64883325 5.5373078 10.90344956 0 9 C0 6.03 0 3.06 0 0 Z " fill="#546DFE" transform="translate(62,85)"/>
</svg>
